<svg width="873" height="68" viewBox="0 0 873 68" fill="none" xmlns="http://www.w3.org/2000/svg">
<g filter="url(#filter0_d_32_353)">
<path d="M6.17285 45.2141V1.90233H14.2374L40.4332 37.2341L66.2341 1.90233H74.2987V45.2141H68.8847V6.80874L43.0273 42.3661H38.1209L11.5868 6.80874V45.2141H6.17285Z" fill="#EEEEEE" fill-opacity="0.22" shape-rendering="crispEdges"/>
<path d="M83.9987 45.2141V12.7303H89.4127V17.2137C90.0142 16.255 90.6158 15.4561 91.2173 14.8169C91.8377 14.1778 92.6366 13.6702 93.6142 13.2942C94.6105 12.9183 95.9546 12.6551 97.6464 12.5047C99.3383 12.3355 101.566 12.2509 104.329 12.2509V16.7908C100.607 16.7908 97.7216 16.9223 95.6726 17.1855C93.6424 17.4487 92.1855 17.8999 91.3019 18.539C90.4184 19.1594 89.8827 20.0241 89.6947 21.1332C89.5067 22.2423 89.4127 23.6522 89.4127 25.3629V45.2141H83.9987Z" fill="#EEEEEE" fill-opacity="0.22" shape-rendering="crispEdges"/>
<path d="M111.238 45.2141V39.8001H116.652V45.2141H111.238Z" fill="#EEEEEE" fill-opacity="0.22" shape-rendering="crispEdges"/>
<path d="M188.189 32.6943C188.189 31.0212 188.058 29.7053 187.795 28.7466C187.532 27.7879 186.939 27.0829 186.018 26.6318C185.097 26.1618 183.668 25.861 181.732 25.7295C179.796 25.5791 177.145 25.4757 173.78 25.4193L158.102 25.1937C154.23 25.1373 151.119 24.9023 148.769 24.4887C146.419 24.0752 144.643 23.4266 143.44 22.5431C142.237 21.6408 141.428 20.4377 141.015 18.9338C140.62 17.4299 140.422 15.5501 140.422 13.2942C140.422 10.8316 140.695 8.80139 141.24 7.20351C141.804 5.60564 142.81 4.35554 144.257 3.45321C145.724 2.55088 147.791 1.92113 150.461 1.56396C153.13 1.18799 156.58 1 160.809 1H172.878C176.713 1 179.909 1.12219 182.465 1.36657C185.022 1.61095 187.052 2.17491 188.556 3.05844C190.06 3.94197 191.131 5.31426 191.771 7.17531C192.429 9.03637 192.758 11.593 192.758 14.8451H187.344C187.344 12.3261 187.099 10.4275 186.61 9.14916C186.14 7.85206 185.351 6.96853 184.242 6.49857C183.152 6.0286 181.676 5.77482 179.815 5.73723C177.954 5.69963 175.641 5.68083 172.878 5.68083H161.091C157.727 5.68083 155.029 5.74663 152.999 5.87822C150.987 6.00981 149.465 6.31058 148.431 6.78054C147.397 7.25051 146.701 8.00245 146.344 9.03637C146.006 10.0703 145.836 11.4896 145.836 13.2942C145.836 14.8169 145.959 16.0388 146.203 16.9599C146.447 17.8811 146.993 18.586 147.838 19.0748C148.703 19.5447 150.029 19.8737 151.814 20.0617C153.6 20.2309 156.035 20.3343 159.118 20.3719L175.923 20.5975C179.871 20.6539 183.02 20.8888 185.37 21.3024C187.738 21.6972 189.505 22.3457 190.671 23.248C191.855 24.1504 192.635 25.3723 193.011 26.9138C193.406 28.4364 193.603 30.3633 193.603 32.6943C193.603 35.2321 193.359 37.3657 192.87 39.0952C192.4 40.8059 191.479 42.1782 190.107 43.2121C188.735 44.246 186.751 44.9885 184.157 45.4397C181.563 45.8909 178.151 46.1164 173.921 46.1164H160.725C156.871 46.1164 153.638 45.9473 151.025 45.6089C148.412 45.2705 146.325 44.5938 144.765 43.5786C143.223 42.5447 142.114 41.0126 141.438 38.9824C140.761 36.9522 140.422 34.2452 140.422 30.8614H145.836C145.836 33.512 146.053 35.5611 146.485 37.0086C146.917 38.456 147.669 39.4994 148.741 40.1385C149.831 40.7589 151.344 41.1348 153.281 41.2664C155.236 41.3792 157.717 41.4356 160.725 41.4356H173.639C177.004 41.4356 179.664 41.3322 181.619 41.1254C183.574 40.8999 185.022 40.4863 185.962 39.8847C186.902 39.2644 187.503 38.3809 187.767 37.2341C188.049 36.0874 188.189 34.5742 188.189 32.6943Z" fill="#EEEEEE" fill-opacity="0.22" shape-rendering="crispEdges"/>
<path d="M215.711 45.2141C212.402 45.2141 209.751 44.8851 207.759 44.2272C205.766 43.5504 204.319 42.3661 203.416 40.6743C202.533 38.9636 202.091 36.5668 202.091 33.4838V3.84798H207.505V12.7303H227.497V17.1855H207.505V33.4838C207.505 35.5893 207.693 37.159 208.069 38.1929C208.464 39.2268 209.244 39.9035 210.409 40.2231C211.594 40.5427 213.361 40.7025 215.711 40.7025C217.797 40.7025 219.433 40.6367 220.617 40.5051C221.82 40.3735 222.704 40.0257 223.268 39.4618C223.832 38.879 224.189 37.9297 224.339 36.6138C224.489 35.2979 224.565 33.4462 224.565 31.0588H229.358C229.358 34.1794 229.161 36.6796 228.766 38.5594C228.39 40.4393 227.704 41.8586 226.708 42.8173C225.73 43.776 224.348 44.4152 222.563 44.7348C220.796 45.0543 218.512 45.2141 215.711 45.2141Z" fill="#EEEEEE" fill-opacity="0.22" shape-rendering="crispEdges"/>
<path d="M237.846 45.2141V12.7303H243.26V17.2137C243.861 16.255 244.463 15.4561 245.064 14.8169C245.685 14.1778 246.484 13.6702 247.461 13.2942C248.458 12.9183 249.802 12.6551 251.494 12.5047C253.185 12.3355 255.413 12.2509 258.176 12.2509V16.7908C254.454 16.7908 251.569 16.9223 249.52 17.1855C247.489 17.4487 246.033 17.8999 245.149 18.539C244.266 19.1594 243.73 20.0241 243.542 21.1332C243.354 22.2423 243.26 23.6522 243.26 25.3629V45.2141H237.846Z" fill="#EEEEEE" fill-opacity="0.22" shape-rendering="crispEdges"/>
<path d="M282.229 45.8345C278.338 45.8345 275.123 45.6277 272.585 45.2141C270.066 44.8193 268.187 43.9358 266.946 42.5635C265.724 41.1912 265.113 39.0576 265.113 36.1626C265.113 33.2113 265.686 31.0494 266.833 29.6771C267.999 28.2861 269.831 27.3837 272.332 26.9702C274.851 26.5566 278.15 26.3498 282.229 26.3498C285.538 26.3498 288.31 26.425 290.547 26.5754C292.784 26.7258 294.786 26.989 296.554 27.3649C296.516 24.8647 296.347 22.9003 296.046 21.4716C295.745 20.0241 295.181 18.9526 294.354 18.257C293.527 17.5615 292.314 17.1197 290.717 16.9317C289.138 16.725 287.032 16.6216 284.4 16.6216C281.393 16.6216 279.033 16.6874 277.323 16.819C275.631 16.9505 274.399 17.1855 273.629 17.5239C272.858 17.8623 272.369 18.351 272.162 18.9902C271.974 19.6293 271.88 20.4565 271.88 21.4716H266.467C266.467 19.4413 266.739 17.8059 267.284 16.5652C267.848 15.3245 268.798 14.3845 270.132 13.7454C271.467 13.1062 273.29 12.6739 275.603 12.4483C277.934 12.2227 280.866 12.1099 284.4 12.1099C288.198 12.1099 291.252 12.3543 293.565 12.8431C295.896 13.3318 297.663 14.2154 298.866 15.4937C300.088 16.7532 300.905 18.5202 301.319 20.7948C301.751 23.0695 301.968 26.002 301.968 29.5925V45.2141H296.554V42.9865C295.914 43.6632 295.031 44.2084 293.903 44.622C292.775 45.0355 291.271 45.3363 289.391 45.5243C287.53 45.7311 285.143 45.8345 282.229 45.8345ZM282.229 41.4356C285.444 41.4356 288.01 41.398 289.927 41.3228C291.845 41.2476 293.273 41.0408 294.213 40.7025C295.172 40.3641 295.802 39.8189 296.102 39.067C296.403 38.3151 296.554 37.2623 296.554 35.9088V30.9178L282.229 30.7487C279.691 30.7111 277.642 30.7487 276.082 30.8614C274.54 30.9554 273.366 31.181 272.557 31.5382C271.749 31.8766 271.204 32.4217 270.922 33.1737C270.659 33.9068 270.527 34.9031 270.527 36.1626C270.527 37.3845 270.659 38.3527 270.922 39.067C271.204 39.7813 271.749 40.3077 272.557 40.6461C273.366 40.9844 274.54 41.2006 276.082 41.2946C277.642 41.3886 279.691 41.4356 282.229 41.4356Z" fill="#EEEEEE" fill-opacity="0.22" shape-rendering="crispEdges"/>
<path d="M309.073 45.2141V14.5349H314.487V45.2141H309.073ZM309.073 7.3163V1.90233H314.487V7.3163H309.073Z" fill="#EEEEEE" fill-opacity="0.22" shape-rendering="crispEdges"/>
<path d="M341.642 57.5929C338.766 57.5929 336.143 57.5177 333.775 57.3674C331.425 57.2358 329.404 56.8974 327.712 56.3522C326.02 55.8259 324.714 54.9799 323.793 53.8144C322.872 52.6677 322.411 51.0887 322.411 49.0772H327.825C327.825 50.3931 328.332 51.333 329.348 51.897C330.382 52.4609 331.923 52.7993 333.972 52.9121C336.021 53.0249 338.578 53.0813 341.642 53.0813C343.916 53.0813 345.862 53.0061 347.479 52.8557C349.095 52.7241 350.411 52.32 351.426 51.6432C352.46 50.9665 353.212 49.8292 353.682 48.2313C354.171 46.6522 354.415 44.4246 354.415 41.5484V40.7871C353.1 42.4789 351.285 43.5974 348.973 44.1426C346.68 44.6878 343.832 44.9603 340.429 44.9603C336.914 44.9603 333.916 44.763 331.434 44.3682C328.953 43.9546 326.932 43.1839 325.372 42.056C323.83 40.9281 322.702 39.2926 321.988 37.1496C321.274 35.0065 320.916 32.2055 320.916 28.7466C320.916 25.0621 321.274 22.1107 321.988 19.8925C322.702 17.6743 323.83 16.0106 325.372 14.9015C326.932 13.7736 328.953 13.0311 331.434 12.6739C333.916 12.2979 336.914 12.1099 340.429 12.1099C343.832 12.1099 346.68 12.3637 348.973 12.8713C351.285 13.36 353.1 14.4597 354.415 16.1704V12.7303H359.829V41.774C359.754 45.3457 359.303 48.1843 358.476 50.2897C357.649 52.4139 356.464 53.993 354.923 55.0269C353.4 56.0797 351.52 56.7658 349.283 57.0854C347.065 57.4238 344.518 57.5929 341.642 57.5929ZM354.415 28.7466C354.415 26.0584 354.246 23.9154 353.908 22.3175C353.588 20.7008 352.949 19.4883 351.99 18.68C351.05 17.8529 349.65 17.3077 347.789 17.0445C345.947 16.7626 343.493 16.6216 340.429 16.6216C337.196 16.6216 334.63 16.7626 332.731 17.0445C330.851 17.3077 329.451 17.8529 328.53 18.68C327.609 19.4883 327.007 20.7008 326.725 22.3175C326.462 23.9154 326.33 26.0584 326.33 28.7466C326.33 31.1904 326.462 33.1831 326.725 34.7245C327.007 36.266 327.599 37.4503 328.502 38.2775C329.423 39.1046 330.833 39.678 332.731 39.9975C334.63 40.2983 337.196 40.4487 340.429 40.4487C343.493 40.4487 345.947 40.2983 347.789 39.9975C349.65 39.678 351.05 39.1046 351.99 38.2775C352.949 37.4503 353.588 36.266 353.908 34.7245C354.246 33.1831 354.415 31.1904 354.415 28.7466Z" fill="#EEEEEE" fill-opacity="0.22" shape-rendering="crispEdges"/>
<path d="M367.274 45.2141V1.90233H372.688V17.0445C373.496 15.9542 374.492 15.0425 375.677 14.3094C376.88 13.5762 378.478 13.0311 380.47 12.6739C382.482 12.2979 385.113 12.1099 388.366 12.1099C392.614 12.1099 395.96 12.5235 398.404 13.3506C400.867 14.1778 402.615 15.6534 403.649 17.7777C404.683 19.9019 405.2 22.9097 405.2 26.801V45.2141H399.757V26.801C399.757 24.5827 399.569 22.7969 399.193 21.4434C398.818 20.0899 398.169 19.0654 397.248 18.3698C396.346 17.6743 395.095 17.2137 393.498 16.9881C391.9 16.7438 389.869 16.6216 387.407 16.6216C383.647 16.6216 380.696 16.9317 378.553 17.5521C376.41 18.1724 374.896 19.15 374.013 20.4847C373.129 21.8006 372.688 23.5206 372.688 25.6449V45.2141H367.274Z" fill="#EEEEEE" fill-opacity="0.22" shape-rendering="crispEdges"/>
<path d="M427.419 45.2141C424.111 45.2141 421.46 44.8851 419.468 44.2272C417.475 43.5504 416.028 42.3661 415.125 40.6743C414.242 38.9636 413.8 36.5668 413.8 33.4838V3.84798H419.214V12.7303H439.206V17.1855H419.214V33.4838C419.214 35.5893 419.402 37.159 419.778 38.1929C420.173 39.2268 420.953 39.9035 422.118 40.2231C423.303 40.5427 425.07 40.7025 427.419 40.7025C429.506 40.7025 431.142 40.6367 432.326 40.5051C433.529 40.3735 434.413 40.0257 434.976 39.4618C435.54 38.879 435.898 37.9297 436.048 36.6138C436.198 35.2979 436.274 33.4462 436.274 31.0588H441.067C441.067 34.1794 440.87 36.6796 440.475 38.5594C440.099 40.4393 439.413 41.8586 438.417 42.8173C437.439 43.776 436.057 44.4152 434.272 44.7348C432.504 45.0543 430.22 45.2141 427.419 45.2141Z" fill="#EEEEEE" fill-opacity="0.22" shape-rendering="crispEdges"/>
<path d="M450.795 45.2141V1.90233H456.209V45.2141H450.795Z" fill="#EEEEEE" fill-opacity="0.22" shape-rendering="crispEdges"/>
<path d="M465.233 45.2141V14.5349H470.647V45.2141H465.233ZM465.233 7.3163V1.90233H470.647V7.3163H465.233Z" fill="#EEEEEE" fill-opacity="0.22" shape-rendering="crispEdges"/>
<path d="M477.978 45.2141V12.7303H483.392V17.0445C484.2 15.9542 485.197 15.0425 486.381 14.3094C487.584 13.5762 489.182 13.0311 491.175 12.6739C493.186 12.2979 495.818 12.1099 499.07 12.1099C503.319 12.1099 506.665 12.5235 509.108 13.3506C511.571 14.1778 513.319 15.6534 514.353 17.7777C515.387 19.9019 515.904 22.9097 515.904 26.801V45.2141H510.462V26.801C510.462 24.5827 510.274 22.7969 509.898 21.4434C509.522 20.0899 508.873 19.0654 507.952 18.3698C507.05 17.6743 505.8 17.2137 504.202 16.9881C502.604 16.7438 500.574 16.6216 498.111 16.6216C494.352 16.6216 491.4 16.9317 489.257 17.5521C487.114 18.1724 485.601 19.15 484.717 20.4847C483.834 21.8006 483.392 23.5206 483.392 25.6449V45.2141H477.978Z" fill="#EEEEEE" fill-opacity="0.22" shape-rendering="crispEdges"/>
<path d="M560.231 35.5705C560.231 37.9955 559.864 39.9035 559.131 41.2946C558.417 42.6857 557.317 43.7008 555.832 44.34C554.347 44.9791 552.448 45.3833 550.136 45.5525C547.843 45.7405 545.108 45.8345 541.931 45.8345C538.302 45.8345 535.22 45.6465 532.682 45.2705C530.163 44.9133 528.123 44.1708 526.563 43.0429C525.021 41.8962 523.893 40.1855 523.179 37.9109C522.484 35.6363 522.136 32.6003 522.136 28.803C522.136 25.1185 522.474 22.1671 523.151 19.9489C523.846 17.7307 524.965 16.0576 526.506 14.9297C528.048 13.8018 530.069 13.0499 532.569 12.6739C535.088 12.2979 538.161 12.1099 541.79 12.1099C545.944 12.1099 549.384 12.4013 552.11 12.9841C554.836 13.5668 556.866 14.6759 558.201 16.3114C559.554 17.9469 560.231 20.3437 560.231 23.5018V30.4667H527.578C527.597 32.8729 527.766 34.7997 528.086 36.2472C528.405 37.6947 529.044 38.785 530.003 39.5182C530.962 40.2513 532.39 40.7401 534.289 40.9845C536.206 41.21 538.754 41.3228 541.931 41.3228C544.788 41.3228 547.091 41.2664 548.839 41.1536C550.606 41.0408 551.941 40.7965 552.843 40.4205C553.764 40.0257 554.385 39.443 554.704 38.6722C555.024 37.9015 555.184 36.8676 555.184 35.5705H560.231ZM541.79 16.6216C538.725 16.6216 536.253 16.7344 534.374 16.9599C532.513 17.1855 531.093 17.6273 530.116 18.2852C529.138 18.9244 528.471 19.8831 528.114 21.1614C527.775 22.4397 527.597 24.1222 527.578 26.2088H555.043V23.5018C555.043 22.1483 554.883 21.0298 554.563 20.1463C554.262 19.244 553.661 18.539 552.759 18.0315C551.856 17.5051 550.522 17.1385 548.755 16.9317C547.006 16.725 544.685 16.6216 541.79 16.6216Z" fill="#EEEEEE" fill-opacity="0.22" shape-rendering="crispEdges"/>
<path d="M631.571 32.6943C631.571 31.0212 631.44 29.7053 631.177 28.7466C630.913 27.7879 630.321 27.0829 629.4 26.6318C628.479 26.1618 627.05 25.861 625.114 25.7295C623.178 25.5791 620.527 25.4757 617.162 25.4193L601.484 25.1937C597.612 25.1373 594.501 24.9023 592.151 24.4887C589.801 24.0752 588.025 23.4266 586.822 22.5431C585.618 21.6408 584.81 20.4377 584.396 18.9338C584.002 17.4299 583.804 15.5501 583.804 13.2942C583.804 10.8316 584.077 8.80139 584.622 7.20351C585.186 5.60564 586.192 4.35554 587.639 3.45321C589.106 2.55088 591.173 1.92113 593.843 1.56396C596.512 1.18799 599.962 1 604.191 1H616.26C620.095 1 623.291 1.12219 625.847 1.36657C628.404 1.61095 630.434 2.17491 631.938 3.05844C633.442 3.94197 634.513 5.31426 635.153 7.17531C635.81 9.03637 636.139 11.593 636.139 14.8451H630.725C630.725 12.3261 630.481 10.4275 629.992 9.14916C629.522 7.85206 628.733 6.96853 627.624 6.49857C626.533 6.0286 625.058 5.77482 623.197 5.73723C621.336 5.69963 619.023 5.68083 616.26 5.68083H604.473C601.108 5.68083 598.411 5.74663 596.381 5.87822C594.369 6.00981 592.846 6.31058 591.812 6.78054C590.779 7.25051 590.083 8.00245 589.726 9.03637C589.388 10.0703 589.218 11.4896 589.218 13.2942C589.218 14.8169 589.341 16.0388 589.585 16.9599C589.829 17.8811 590.374 18.586 591.22 19.0748C592.085 19.5447 593.41 19.8737 595.196 20.0617C596.982 20.2309 599.416 20.3343 602.499 20.3719L619.305 20.5975C623.253 20.6539 626.402 20.8888 628.752 21.3024C631.12 21.6972 632.887 22.3457 634.053 23.248C635.237 24.1504 636.017 25.3723 636.393 26.9138C636.788 28.4364 636.985 30.3633 636.985 32.6943C636.985 35.2321 636.741 37.3657 636.252 39.0952C635.782 40.8059 634.861 42.1782 633.489 43.2121C632.117 44.246 630.133 44.9885 627.539 45.4397C624.945 45.8909 621.533 46.1164 617.303 46.1164H604.107C600.253 46.1164 597.02 45.9473 594.407 45.6089C591.794 45.2705 589.707 44.5938 588.147 43.5786C586.605 42.5447 585.496 41.0126 584.819 38.9824C584.143 36.9522 583.804 34.2452 583.804 30.8614H589.218C589.218 33.512 589.435 35.5611 589.867 37.0086C590.299 38.456 591.051 39.4994 592.123 40.1385C593.213 40.7589 594.726 41.1348 596.663 41.2664C598.618 41.3792 601.099 41.4356 604.107 41.4356H617.021C620.386 41.4356 623.046 41.3322 625.001 41.1254C626.956 40.8999 628.404 40.4863 629.344 39.8847C630.284 39.2644 630.885 38.3809 631.148 37.2341C631.43 36.0874 631.571 34.5742 631.571 32.6943Z" fill="#EEEEEE" fill-opacity="0.22" shape-rendering="crispEdges"/>
<path d="M659.092 45.2141C655.784 45.2141 653.133 44.8851 651.141 44.2272C649.148 43.5504 647.7 42.3661 646.798 40.6743C645.915 38.9636 645.473 36.5668 645.473 33.4838V3.84798H650.887V12.7303H670.879V17.1855H650.887V33.4838C650.887 35.5893 651.075 37.159 651.451 38.1929C651.846 39.2268 652.626 39.9035 653.791 40.2231C654.976 40.5427 656.743 40.7025 659.092 40.7025C661.179 40.7025 662.814 40.6367 663.999 40.5051C665.202 40.3735 666.085 40.0257 666.649 39.4618C667.213 38.879 667.57 37.9297 667.721 36.6138C667.871 35.2979 667.946 33.4462 667.946 31.0588H672.74C672.74 34.1794 672.543 36.6796 672.148 38.5594C671.772 40.4393 671.086 41.8586 670.09 42.8173C669.112 43.776 667.73 44.4152 665.944 44.7348C664.177 45.0543 661.893 45.2141 659.092 45.2141Z" fill="#EEEEEE" fill-opacity="0.22" shape-rendering="crispEdges"/>
<path d="M697.357 45.8345C693.108 45.8345 689.762 45.3739 687.318 44.4528C684.875 43.5129 683.136 41.9526 682.102 39.7719C681.068 37.5725 680.551 34.5742 680.551 30.7769V12.7303H685.993V30.7769C685.993 32.9199 686.162 34.6869 686.501 36.078C686.858 37.4503 687.478 38.5218 688.362 39.2926C689.245 40.0445 690.486 40.5709 692.084 40.8717C693.7 41.1724 695.778 41.3228 698.316 41.3228C702.075 41.3228 705.027 41.0126 707.17 40.3923C709.313 39.7719 710.826 38.8038 711.709 37.4879C712.612 36.1532 713.063 34.4238 713.063 32.2995V12.7303H718.477V45.2141H713.063V40.8999C712.273 41.9902 711.277 42.9019 710.074 43.635C708.871 44.3682 707.264 44.9133 705.252 45.2705C703.241 45.6465 700.609 45.8345 697.357 45.8345Z" fill="#EEEEEE" fill-opacity="0.22" shape-rendering="crispEdges"/>
<path d="M744.814 45.8345C741.185 45.8345 738.103 45.6465 735.565 45.2705C733.027 44.9133 730.978 44.1708 729.418 43.0429C727.857 41.8962 726.72 40.1855 726.006 37.9109C725.291 35.6363 724.934 32.6003 724.934 28.803C724.934 25.1185 725.291 22.1671 726.006 19.9489C726.72 17.7307 727.857 16.0576 729.418 14.9297C730.978 13.8018 733.027 13.0499 735.565 12.6739C738.103 12.2979 741.185 12.1099 744.814 12.1099C748.291 12.1099 751.224 12.3731 753.611 12.8995C756.018 13.4258 757.907 14.6007 759.279 16.4242V1.90233H764.693V45.2141H759.279V41.492C757.907 43.3343 756.018 44.5186 753.611 45.0449C751.224 45.5713 748.291 45.8345 744.814 45.8345ZM759.279 28.803C759.279 26.1148 759.091 23.9624 758.715 22.3457C758.339 20.729 757.644 19.5165 756.628 18.7082C755.613 17.8811 754.156 17.3265 752.258 17.0445C750.359 16.7626 747.878 16.6216 744.814 16.6216C741.467 16.6216 738.817 16.7626 736.862 17.0445C734.907 17.3265 733.469 17.8811 732.548 18.7082C731.626 19.5165 731.025 20.729 730.743 22.3457C730.48 23.9624 730.348 26.1148 730.348 28.803C730.348 31.5852 730.48 33.8128 730.743 35.4859C731.025 37.1589 731.626 38.4185 732.548 39.2644C733.469 40.0915 734.907 40.6461 736.862 40.9281C738.817 41.1912 741.467 41.3228 744.814 41.3228C747.878 41.3228 750.359 41.1912 752.258 40.9281C754.156 40.6461 755.613 40.0915 756.628 39.2644C757.644 38.4185 758.339 37.1589 758.715 35.4859C759.091 33.8128 759.279 31.5852 759.279 28.803Z" fill="#EEEEEE" fill-opacity="0.22" shape-rendering="crispEdges"/>
<path d="M772.025 45.2141V14.5349H777.438V45.2141H772.025ZM772.025 7.3163V1.90233H777.438V7.3163H772.025Z" fill="#EEEEEE" fill-opacity="0.22" shape-rendering="crispEdges"/>
<path d="M803.634 45.8345C800.006 45.8345 796.923 45.6465 794.385 45.2705C791.848 44.9133 789.799 44.1708 788.238 43.0429C786.678 41.8962 785.541 40.1855 784.826 37.9109C784.112 35.6363 783.755 32.6003 783.755 28.803C783.755 25.1185 784.112 22.1671 784.826 19.9489C785.541 17.7307 786.678 16.0576 788.238 14.9297C789.799 13.8018 791.848 13.0499 794.385 12.6739C796.923 12.2979 800.006 12.1099 803.634 12.1099C807.281 12.1099 810.364 12.2979 812.883 12.6739C815.421 13.0499 817.47 13.8018 819.03 14.9297C820.59 16.0576 821.728 17.7307 822.442 19.9489C823.156 22.1671 823.514 25.1185 823.514 28.803C823.514 32.6003 823.156 35.6363 822.442 37.9109C821.728 40.1855 820.59 41.8962 819.03 43.0429C817.47 44.1708 815.421 44.9133 812.883 45.2705C810.364 45.6465 807.281 45.8345 803.634 45.8345ZM818.1 28.803C818.1 26.1148 817.959 23.9624 817.677 22.3457C817.414 20.729 816.821 19.5165 815.9 18.7082C814.979 17.8811 813.541 17.3265 811.586 17.0445C809.65 16.7626 806.999 16.6216 803.634 16.6216C800.288 16.6216 797.638 16.7626 795.682 17.0445C793.727 17.3265 792.289 17.8811 791.368 18.7082C790.447 19.5165 789.846 20.729 789.564 22.3457C789.3 23.9624 789.169 26.1148 789.169 28.803C789.169 31.5852 789.3 33.8128 789.564 35.4859C789.846 37.1589 790.447 38.4185 791.368 39.2644C792.289 40.0915 793.727 40.6461 795.682 40.9281C797.638 41.1912 800.288 41.3228 803.634 41.3228C806.999 41.3228 809.65 41.1912 811.586 40.9281C813.541 40.6461 814.979 40.0915 815.9 39.2644C816.821 38.4185 817.414 37.1589 817.677 35.4859C817.959 33.8128 818.1 31.5852 818.1 28.803Z" fill="#EEEEEE" fill-opacity="0.22" shape-rendering="crispEdges"/>
<path d="M848.187 45.8345C844.239 45.8345 841.062 45.7029 838.656 45.4397C836.268 45.1765 834.454 44.6878 833.214 43.9734C831.992 43.2591 831.165 42.244 830.732 40.9281C830.319 39.6122 830.112 37.9015 830.112 35.7961H835.3C835.3 36.9804 835.385 37.9391 835.554 38.6722C835.723 39.3866 836.203 39.9411 836.992 40.3359C837.782 40.7119 839.06 40.9751 840.827 41.1254C842.613 41.257 845.113 41.3228 848.328 41.3228C851.73 41.3228 854.371 41.257 856.251 41.1254C858.15 40.9751 859.513 40.7119 860.34 40.3359C861.167 39.9411 861.665 39.3772 861.834 38.644C862.022 37.9109 862.116 36.9428 862.116 35.7397C862.116 34.2734 861.985 33.1737 861.722 32.4405C861.458 31.7074 860.838 31.2186 859.861 30.9742C858.883 30.7111 857.323 30.5701 855.18 30.5513L842.265 30.4103C838.938 30.3727 836.4 30.0907 834.652 29.5644C832.903 29.038 831.71 28.1169 831.071 26.801C830.431 25.4663 830.112 23.577 830.112 21.1332C830.112 18.8586 830.46 17.1009 831.155 15.8602C831.87 14.6195 832.979 13.736 834.483 13.2096C835.986 12.6833 837.942 12.3731 840.348 12.2791C842.754 12.1663 845.658 12.1099 849.061 12.1099C853.065 12.1099 856.242 12.2321 858.592 12.4765C860.96 12.7209 862.727 13.1814 863.893 13.8582C865.077 14.5349 865.848 15.5219 866.205 16.819C866.581 18.0973 866.769 19.7703 866.769 21.8382H861.581C861.581 20.6163 861.496 19.6575 861.327 18.962C861.158 18.2476 860.697 17.7307 859.945 17.4111C859.212 17.0727 858.009 16.8566 856.336 16.7626C854.682 16.6686 852.351 16.6216 849.343 16.6216C845.921 16.6216 843.261 16.6592 841.363 16.7344C839.464 16.8096 838.092 16.9881 837.246 17.2701C836.4 17.5521 835.883 18.0033 835.695 18.6236C835.507 19.2252 835.413 20.0617 835.413 21.1332C835.413 22.2235 835.469 23.0883 835.582 23.7274C835.714 24.3478 836.043 24.8177 836.569 25.1373C837.096 25.4569 837.951 25.6731 839.135 25.7858C840.338 25.8798 842.011 25.9362 844.154 25.955L855.293 26.0678C858.639 26.1054 861.176 26.3874 862.906 26.9138C864.654 27.4213 865.839 28.3706 866.459 29.7617C867.098 31.134 867.418 33.1267 867.418 35.7397C867.418 38.0895 867.07 39.9411 866.374 41.2946C865.698 42.6481 864.607 43.6538 863.103 44.3118C861.599 44.9509 859.616 45.3645 857.154 45.5525C854.71 45.7405 851.721 45.8345 848.187 45.8345Z" fill="#EEEEEE" fill-opacity="0.22" shape-rendering="crispEdges"/>
</g>
<defs>
<filter id="filter0_d_32_353" x="0.84217" y="0.111553" width="871.906" height="67.2543" filterUnits="userSpaceOnUse" color-interpolation-filters="sRGB">
<feFlood flood-opacity="0" result="BackgroundImageFix"/>
<feColorMatrix in="SourceAlpha" type="matrix" values="0 0 0 0 0 0 0 0 0 0 0 0 0 0 0 0 0 0 127 0" result="hardAlpha"/>
<feOffset dy="4.44223"/>
<feGaussianBlur stdDeviation="2.66534"/>
<feComposite in2="hardAlpha" operator="out"/>
<feColorMatrix type="matrix" values="0 0 0 0 0 0 0 0 0 0 0 0 0 0 0 0 0 0 0.47 0"/>
<feBlend mode="normal" in2="BackgroundImageFix" result="effect1_dropShadow_32_353"/>
<feBlend mode="normal" in="SourceGraphic" in2="effect1_dropShadow_32_353" result="shape"/>
</filter>
</defs>
</svg>
